<svg width="50" height="50" viewBox="0 0 50 50" fill="none" xmlns="http://www.w3.org/2000/svg">
<path d="M49.5005 19.9339C48.7643 16.5042 47.292 13.2361 45.1373 10.4708C42.408 6.93332 38.4039 4.13208 33.9329 3.88069C29.9108 3.64725 25.9247 5.58657 23.1774 8.53146C22.136 9.66272 21.5614 12.2664 23.8777 12.2305C24.5959 12.2305 25.2603 11.8893 25.9247 11.602C29.2106 10.2553 33.1429 10.5965 36.1594 12.4819C33.3763 12.2305 30.5572 12.5358 27.8639 13.272C27.3252 13.4157 26.7686 13.5952 26.3556 13.9903C25.9606 14.3853 25.781 15.0677 26.1222 15.5166C26.5172 16.0373 27.2893 15.9835 27.9177 15.8757C29.6056 15.6064 31.3114 15.3909 32.9992 15.6423C35.5669 16.0194 37.8652 17.4918 39.8942 19.1259C42.6774 21.3704 45.1552 24.0819 46.6994 27.3141C46.9508 27.8169 47.1663 28.3556 47.5793 28.7506C47.9922 29.1457 48.6566 29.3252 49.1235 29.0379C49.5903 28.7506 49.716 28.1401 49.7878 27.5834C50.1649 25.0336 50.0212 22.4299 49.5005 19.9339Z" fill="#F97272"/>
<path d="M0.553227 30.0615C1.75626 35.8255 4.95238 41.1407 10.1416 44.2292C12.0449 45.3605 14.1816 46.1686 16.3902 46.2404C18.8142 46.3122 21.1844 45.4503 23.3031 44.2652C24.56 43.5469 25.7631 42.685 26.7506 41.6255C27.1995 41.1407 27.6125 40.602 27.7741 39.9735C27.9357 39.345 27.81 38.5909 27.3252 38.1599C26.8943 37.7828 26.2479 37.711 25.6733 37.8187C25.0987 37.9265 24.578 38.1779 24.0393 38.4113C20.7534 39.7401 16.857 39.381 13.8584 37.5135C16.6416 37.7649 19.4426 37.4596 22.136 36.7234C22.6926 36.5797 23.2493 36.4002 23.6443 35.9872C24.0393 35.5741 24.2009 34.8738 23.8418 34.4429C23.4468 33.976 22.7285 34.0119 22.1181 34.1017C20.5918 34.3351 19.0297 34.5506 17.4855 34.407C14.0918 34.0658 11.1471 31.9469 8.65126 29.6125C6.46066 27.5655 4.44962 25.267 3.17476 22.5556C2.97725 22.1426 2.79769 21.7116 2.49245 21.3525C2.1872 21.0113 1.73831 20.742 1.28941 20.8138C0.427537 20.9395 0.12229 22.0169 0.050467 22.8968C-0.0931788 25.285 0.0684227 27.7091 0.553227 30.0615Z" fill="#F97272"/>
<path d="M19.9454 0.522803C16.444 1.25902 13.1222 2.78534 10.3211 5.01196C7.96894 6.86149 5.9579 9.21381 4.80873 11.9791C2.65405 17.1866 4.39575 22.9327 8.39988 26.7215C8.83081 27.1166 9.27971 27.5116 9.83634 27.7091C10.393 27.9067 11.0394 27.9067 11.5062 27.5655C12.0808 27.1525 12.2604 26.3804 12.1706 25.68C12.0808 24.9797 11.7576 24.3513 11.5062 23.6869C10.2673 20.4906 10.6623 16.7197 12.4938 13.8287C12.2244 16.594 12.5476 19.4132 13.2659 22.1067C13.4095 22.6454 13.5891 23.22 13.9841 23.615C14.3791 24.0101 15.0615 24.1896 15.5103 23.8485C16.0311 23.4534 15.9772 22.6813 15.8695 22.0348C15.6001 20.329 15.3847 18.6051 15.654 16.8992C16.049 14.2955 17.5393 11.9791 19.2092 9.95003C21.4896 7.18471 24.2189 4.72465 27.4329 3.18038C27.8818 2.9649 28.3487 2.76738 28.7078 2.40825C29.0669 2.04912 29.2824 1.51042 29.1028 1.04354C28.8694 0.415063 28.0973 0.235496 27.4329 0.145713C24.973 -0.141593 22.4233 0.00206028 19.9454 0.522803Z" fill="#F97272"/>
<path d="M30.0904 49.4546C32.8915 48.862 35.5669 47.7667 37.9909 46.2224C40.2174 44.8038 42.2285 43.0082 43.7188 40.8175C45.1912 38.6267 46.1249 36.041 46.1787 33.4014C46.2326 29.6484 44.4729 25.9853 41.7616 23.3816C41.2768 22.9147 40.7381 22.4658 40.1097 22.2683C39.4812 22.0707 38.6912 22.1605 38.2423 22.6453C37.8473 23.0763 37.7575 23.7227 37.8652 24.3153C37.973 24.8899 38.2423 25.4286 38.4578 25.9853C39.7865 29.2713 39.4274 33.1679 37.56 36.1667C37.8293 33.3834 37.5061 30.5822 36.7699 27.8887C36.6263 27.35 36.4467 26.7933 36.0517 26.3803C35.6567 25.9853 34.9744 25.8057 34.5255 26.1469C34.0047 26.5419 34.0586 27.3141 34.1663 27.9426C34.4177 29.6305 34.6511 31.3364 34.3998 33.0243C34.0227 35.5921 32.5683 37.8905 30.9343 39.9017C28.6898 42.667 25.9965 45.163 22.7824 46.6893C22.3335 46.9048 21.8487 47.1202 21.4716 47.4435C20.0891 48.6465 21.346 49.7239 22.6926 49.8676C25.1346 50.137 27.6484 49.9933 30.0904 49.4546Z" fill="#F97272"/>
<path d="M25.0089 27.9246C26.5857 27.9246 27.8639 26.6463 27.8639 25.0695C27.8639 23.4926 26.5857 22.2144 25.0089 22.2144C23.4322 22.2144 22.154 23.4926 22.154 25.0695C22.154 26.6463 23.4322 27.9246 25.0089 27.9246Z" fill="#F97272"/>
</svg>
